<mxfile host="app.diagrams.net" modified="2022-05-19T10:19:39.697Z" agent="5.0 (Windows NT 10.0; Win64; x64) AppleWebKit/537.36 (KHTML, like Gecko) Chrome/101.0.4951.64 Safari/537.36 Edg/101.0.1210.47" etag="h3oC5wV-IVUJGuetwBKp" version="18.0.7" type="github">
  <diagram id="C5RBs43oDa-KdzZeNtuy" name="Page-1">
    <mxGraphModel dx="1808" dy="1711" grid="1" gridSize="10" guides="1" tooltips="1" connect="1" arrows="1" fold="1" page="1" pageScale="1" pageWidth="827" pageHeight="1169" math="0" shadow="0">
      <root>
        <mxCell id="WIyWlLk6GJQsqaUBKTNV-0" />
        <mxCell id="WIyWlLk6GJQsqaUBKTNV-1" parent="WIyWlLk6GJQsqaUBKTNV-0" />
        <mxCell id="P5X8WKmOZVfoLYURVxWp-2" value="Signup.html" style="swimlane;fontStyle=0;childLayout=stackLayout;horizontal=1;startSize=30;horizontalStack=0;resizeParent=1;resizeParentMax=0;resizeLast=0;collapsible=1;marginBottom=0;" vertex="1" parent="WIyWlLk6GJQsqaUBKTNV-1">
          <mxGeometry x="40" y="40" width="90" height="110" as="geometry" />
        </mxCell>
        <mxCell id="P5X8WKmOZVfoLYURVxWp-3" value="DB_connect&#xa;(user_DB)" style="text;strokeColor=none;fillColor=none;align=left;verticalAlign=middle;spacingLeft=4;spacingRight=4;overflow=hidden;points=[[0,0.5],[1,0.5]];portConstraint=eastwest;rotatable=0;" vertex="1" parent="P5X8WKmOZVfoLYURVxWp-2">
          <mxGeometry y="30" width="90" height="30" as="geometry" />
        </mxCell>
        <mxCell id="P5X8WKmOZVfoLYURVxWp-4" value="user ID&#xa;user PW&#xa;user NAME" style="text;strokeColor=none;fillColor=none;align=left;verticalAlign=middle;spacingLeft=4;spacingRight=4;overflow=hidden;points=[[0,0.5],[1,0.5]];portConstraint=eastwest;rotatable=0;" vertex="1" parent="P5X8WKmOZVfoLYURVxWp-2">
          <mxGeometry y="60" width="90" height="50" as="geometry" />
        </mxCell>
        <mxCell id="P5X8WKmOZVfoLYURVxWp-31" style="edgeStyle=orthogonalEdgeStyle;rounded=0;orthogonalLoop=1;jettySize=auto;html=1;exitX=1;exitY=0.5;exitDx=0;exitDy=0;entryX=0;entryY=0.5;entryDx=0;entryDy=0;" edge="1" parent="WIyWlLk6GJQsqaUBKTNV-1" source="P5X8WKmOZVfoLYURVxWp-7" target="P5X8WKmOZVfoLYURVxWp-29">
          <mxGeometry relative="1" as="geometry" />
        </mxCell>
        <mxCell id="P5X8WKmOZVfoLYURVxWp-37" style="edgeStyle=orthogonalEdgeStyle;rounded=0;orthogonalLoop=1;jettySize=auto;html=1;exitX=0.15;exitY=0.95;exitDx=0;exitDy=0;exitPerimeter=0;entryX=1.038;entryY=0.181;entryDx=0;entryDy=0;entryPerimeter=0;" edge="1" parent="WIyWlLk6GJQsqaUBKTNV-1" source="P5X8WKmOZVfoLYURVxWp-7" target="P5X8WKmOZVfoLYURVxWp-10">
          <mxGeometry relative="1" as="geometry" />
        </mxCell>
        <mxCell id="P5X8WKmOZVfoLYURVxWp-7" value="user_DB" style="shape=datastore;whiteSpace=wrap;html=1;" vertex="1" parent="WIyWlLk6GJQsqaUBKTNV-1">
          <mxGeometry x="310" y="70" width="60" height="60" as="geometry" />
        </mxCell>
        <mxCell id="P5X8WKmOZVfoLYURVxWp-9" value="index.html" style="swimlane;fontStyle=0;childLayout=stackLayout;horizontal=1;startSize=30;horizontalStack=0;resizeParent=1;resizeParentMax=0;resizeLast=0;collapsible=1;marginBottom=0;" vertex="1" parent="WIyWlLk6GJQsqaUBKTNV-1">
          <mxGeometry x="40" y="210" width="90" height="180" as="geometry" />
        </mxCell>
        <mxCell id="P5X8WKmOZVfoLYURVxWp-10" value="DB_connect&#xa;(user_DB)&#xa;(image_DB)" style="text;strokeColor=none;fillColor=none;align=left;verticalAlign=middle;spacingLeft=4;spacingRight=4;overflow=hidden;points=[[0,0.5],[1,0.5]];portConstraint=eastwest;rotatable=0;" vertex="1" parent="P5X8WKmOZVfoLYURVxWp-9">
          <mxGeometry y="30" width="90" height="50" as="geometry" />
        </mxCell>
        <mxCell id="P5X8WKmOZVfoLYURVxWp-11" value="user ID&#xa;user PW&#xa;user NAME&#xa;" style="text;strokeColor=none;fillColor=none;align=left;verticalAlign=middle;spacingLeft=4;spacingRight=4;overflow=hidden;points=[[0,0.5],[1,0.5]];portConstraint=eastwest;rotatable=0;" vertex="1" parent="P5X8WKmOZVfoLYURVxWp-9">
          <mxGeometry y="80" width="90" height="70" as="geometry" />
        </mxCell>
        <mxCell id="P5X8WKmOZVfoLYURVxWp-36" value="image url&#xa;image number&#xa;" style="text;strokeColor=none;fillColor=none;align=left;verticalAlign=middle;spacingLeft=4;spacingRight=4;overflow=hidden;points=[[0,0.5],[1,0.5]];portConstraint=eastwest;rotatable=0;" vertex="1" parent="P5X8WKmOZVfoLYURVxWp-9">
          <mxGeometry y="150" width="90" height="30" as="geometry" />
        </mxCell>
        <mxCell id="P5X8WKmOZVfoLYURVxWp-14" value="login.html" style="swimlane;fontStyle=0;childLayout=stackLayout;horizontal=1;startSize=30;horizontalStack=0;resizeParent=1;resizeParentMax=0;resizeLast=0;collapsible=1;marginBottom=0;" vertex="1" parent="WIyWlLk6GJQsqaUBKTNV-1">
          <mxGeometry x="600" y="55" width="90" height="90" as="geometry" />
        </mxCell>
        <mxCell id="P5X8WKmOZVfoLYURVxWp-15" value="DB_connect&#xa;(user_DB)" style="text;strokeColor=none;fillColor=none;align=left;verticalAlign=middle;spacingLeft=4;spacingRight=4;overflow=hidden;points=[[0,0.5],[1,0.5]];portConstraint=eastwest;rotatable=0;" vertex="1" parent="P5X8WKmOZVfoLYURVxWp-14">
          <mxGeometry y="30" width="90" height="30" as="geometry" />
        </mxCell>
        <mxCell id="P5X8WKmOZVfoLYURVxWp-16" value="user ID&#xa;user PW" style="text;strokeColor=none;fillColor=none;align=left;verticalAlign=middle;spacingLeft=4;spacingRight=4;overflow=hidden;points=[[0,0.5],[1,0.5]];portConstraint=eastwest;rotatable=0;" vertex="1" parent="P5X8WKmOZVfoLYURVxWp-14">
          <mxGeometry y="60" width="90" height="30" as="geometry" />
        </mxCell>
        <mxCell id="P5X8WKmOZVfoLYURVxWp-17" value="create&lt;br&gt;" style="text;html=1;strokeColor=none;fillColor=none;align=center;verticalAlign=middle;whiteSpace=wrap;rounded=0;" vertex="1" parent="WIyWlLk6GJQsqaUBKTNV-1">
          <mxGeometry x="-20" y="70" width="60" height="30" as="geometry" />
        </mxCell>
        <mxCell id="P5X8WKmOZVfoLYURVxWp-18" value="Data(ID,PW)&lt;br&gt;judgement&lt;br&gt;" style="rhombus;whiteSpace=wrap;html=1;" vertex="1" parent="WIyWlLk6GJQsqaUBKTNV-1">
          <mxGeometry x="180" y="60" width="80" height="80" as="geometry" />
        </mxCell>
        <mxCell id="P5X8WKmOZVfoLYURVxWp-20" value="" style="endArrow=classic;html=1;rounded=0;" edge="1" parent="WIyWlLk6GJQsqaUBKTNV-1">
          <mxGeometry width="50" height="50" relative="1" as="geometry">
            <mxPoint x="140" y="100" as="sourcePoint" />
            <mxPoint x="170" y="100" as="targetPoint" />
          </mxGeometry>
        </mxCell>
        <mxCell id="P5X8WKmOZVfoLYURVxWp-21" value="" style="endArrow=classic;html=1;rounded=0;" edge="1" parent="WIyWlLk6GJQsqaUBKTNV-1">
          <mxGeometry width="50" height="50" relative="1" as="geometry">
            <mxPoint x="270" y="99.31" as="sourcePoint" />
            <mxPoint x="300" y="99.31" as="targetPoint" />
          </mxGeometry>
        </mxCell>
        <mxCell id="P5X8WKmOZVfoLYURVxWp-22" value="True" style="text;html=1;strokeColor=none;fillColor=none;align=center;verticalAlign=middle;whiteSpace=wrap;rounded=0;" vertex="1" parent="WIyWlLk6GJQsqaUBKTNV-1">
          <mxGeometry x="250" y="80" width="60" height="10" as="geometry" />
        </mxCell>
        <mxCell id="P5X8WKmOZVfoLYURVxWp-25" value="" style="endArrow=classic;html=1;rounded=0;" edge="1" parent="WIyWlLk6GJQsqaUBKTNV-1">
          <mxGeometry width="50" height="50" relative="1" as="geometry">
            <mxPoint x="170" y="84.66" as="sourcePoint" />
            <mxPoint x="140" y="84.66" as="targetPoint" />
            <Array as="points">
              <mxPoint x="160" y="84.66" />
            </Array>
          </mxGeometry>
        </mxCell>
        <mxCell id="P5X8WKmOZVfoLYURVxWp-26" value="False" style="text;html=1;strokeColor=none;fillColor=none;align=center;verticalAlign=middle;whiteSpace=wrap;rounded=0;" vertex="1" parent="WIyWlLk6GJQsqaUBKTNV-1">
          <mxGeometry x="130" y="70" width="60" height="10" as="geometry" />
        </mxCell>
        <mxCell id="P5X8WKmOZVfoLYURVxWp-27" value="" style="endArrow=classic;html=1;rounded=0;" edge="1" parent="WIyWlLk6GJQsqaUBKTNV-1">
          <mxGeometry width="50" height="50" relative="1" as="geometry">
            <mxPoint x="520" y="100" as="sourcePoint" />
            <mxPoint x="590" y="100" as="targetPoint" />
          </mxGeometry>
        </mxCell>
        <mxCell id="P5X8WKmOZVfoLYURVxWp-28" value="read" style="text;html=1;strokeColor=none;fillColor=none;align=center;verticalAlign=middle;whiteSpace=wrap;rounded=0;" vertex="1" parent="WIyWlLk6GJQsqaUBKTNV-1">
          <mxGeometry x="520" y="80" width="60" height="10" as="geometry" />
        </mxCell>
        <mxCell id="P5X8WKmOZVfoLYURVxWp-29" value="Data(ID,PW)&lt;br&gt;judgement&lt;br&gt;" style="rhombus;whiteSpace=wrap;html=1;" vertex="1" parent="WIyWlLk6GJQsqaUBKTNV-1">
          <mxGeometry x="430" y="60" width="80" height="80" as="geometry" />
        </mxCell>
        <mxCell id="P5X8WKmOZVfoLYURVxWp-35" value="True" style="text;html=1;strokeColor=none;fillColor=none;align=center;verticalAlign=middle;whiteSpace=wrap;rounded=0;" vertex="1" parent="WIyWlLk6GJQsqaUBKTNV-1">
          <mxGeometry x="520" y="110" width="60" height="10" as="geometry" />
        </mxCell>
        <mxCell id="P5X8WKmOZVfoLYURVxWp-46" style="edgeStyle=orthogonalEdgeStyle;rounded=0;orthogonalLoop=1;jettySize=auto;html=1;exitX=0.15;exitY=0.05;exitDx=0;exitDy=0;exitPerimeter=0;" edge="1" parent="WIyWlLk6GJQsqaUBKTNV-1" source="P5X8WKmOZVfoLYURVxWp-38">
          <mxGeometry relative="1" as="geometry">
            <mxPoint x="140" y="293.1379310344828" as="targetPoint" />
          </mxGeometry>
        </mxCell>
        <mxCell id="P5X8WKmOZVfoLYURVxWp-38" value="image_DB" style="shape=datastore;whiteSpace=wrap;html=1;" vertex="1" parent="WIyWlLk6GJQsqaUBKTNV-1">
          <mxGeometry x="560" y="290" width="60" height="60" as="geometry" />
        </mxCell>
        <mxCell id="P5X8WKmOZVfoLYURVxWp-39" style="edgeStyle=orthogonalEdgeStyle;rounded=0;orthogonalLoop=1;jettySize=auto;html=1;entryX=0.028;entryY=0.582;entryDx=0;entryDy=0;entryPerimeter=0;" edge="1" parent="WIyWlLk6GJQsqaUBKTNV-1" source="P5X8WKmOZVfoLYURVxWp-11" target="P5X8WKmOZVfoLYURVxWp-38">
          <mxGeometry relative="1" as="geometry" />
        </mxCell>
        <mxCell id="P5X8WKmOZVfoLYURVxWp-42" value="1people 1develop project" style="text;strokeColor=none;fillColor=none;html=1;fontSize=24;fontStyle=1;verticalAlign=middle;align=center;" vertex="1" parent="WIyWlLk6GJQsqaUBKTNV-1">
          <mxGeometry x="80" y="-20" width="100" height="40" as="geometry" />
        </mxCell>
        <mxCell id="P5X8WKmOZVfoLYURVxWp-44" value="update , create , delete&amp;nbsp;" style="text;html=1;strokeColor=none;fillColor=none;align=left;verticalAlign=middle;whiteSpace=wrap;rounded=0;" vertex="1" parent="WIyWlLk6GJQsqaUBKTNV-1">
          <mxGeometry x="270" y="300" width="360" height="10" as="geometry" />
        </mxCell>
        <mxCell id="P5X8WKmOZVfoLYURVxWp-48" style="edgeStyle=orthogonalEdgeStyle;rounded=0;orthogonalLoop=1;jettySize=auto;html=1;exitX=0;exitY=0.5;exitDx=0;exitDy=0;entryX=1.053;entryY=0.773;entryDx=0;entryDy=0;entryPerimeter=0;" edge="1" parent="WIyWlLk6GJQsqaUBKTNV-1" source="P5X8WKmOZVfoLYURVxWp-16" target="P5X8WKmOZVfoLYURVxWp-10">
          <mxGeometry relative="1" as="geometry">
            <Array as="points">
              <mxPoint x="600" y="200" />
              <mxPoint x="410" y="200" />
              <mxPoint x="410" y="279" />
            </Array>
          </mxGeometry>
        </mxCell>
        <mxCell id="P5X8WKmOZVfoLYURVxWp-49" value="move" style="text;html=1;strokeColor=none;fillColor=none;align=center;verticalAlign=middle;whiteSpace=wrap;rounded=0;" vertex="1" parent="WIyWlLk6GJQsqaUBKTNV-1">
          <mxGeometry x="414" y="210" width="60" height="10" as="geometry" />
        </mxCell>
        <mxCell id="P5X8WKmOZVfoLYURVxWp-50" value="move" style="text;html=1;strokeColor=none;fillColor=none;align=center;verticalAlign=middle;whiteSpace=wrap;rounded=0;" vertex="1" parent="WIyWlLk6GJQsqaUBKTNV-1">
          <mxGeometry x="310" y="30" width="60" height="10" as="geometry" />
        </mxCell>
        <mxCell id="P5X8WKmOZVfoLYURVxWp-53" value="" style="endArrow=classic;startArrow=classic;html=1;rounded=0;entryX=0;entryY=0;entryDx=0;entryDy=0;" edge="1" parent="WIyWlLk6GJQsqaUBKTNV-1" target="P5X8WKmOZVfoLYURVxWp-14">
          <mxGeometry width="50" height="50" relative="1" as="geometry">
            <mxPoint x="130" y="40" as="sourcePoint" />
            <mxPoint x="220" y="40" as="targetPoint" />
          </mxGeometry>
        </mxCell>
      </root>
    </mxGraphModel>
  </diagram>
</mxfile>
